<svg xmlns="http://www.w3.org/2000/svg" xmlns:xlink="http://www.w3.org/1999/xlink" width="64" zoomAndPan="magnify" viewBox="0 0 48 48" height="64" preserveAspectRatio="xMidYMid meet" version="1.2"><defs><clipPath id="6d761114b7"><path d="M 22 2.265625 L 25 2.265625 L 25 10 L 22 10 Z M 22 2.265625 "/></clipPath><clipPath id="d126fc36f2"><path d="M 0.488281 30 L 47.507812 30 L 47.507812 36 L 0.488281 36 Z M 0.488281 30 "/></clipPath><clipPath id="d19dd4aa03"><path d="M 11 40 L 37 40 L 37 44.878906 L 11 44.878906 Z M 11 40 "/></clipPath><clipPath id="7c577ad4c2"><path d="M 0.488281 30 L 17 30 L 17 35 L 0.488281 35 Z M 0.488281 30 "/></clipPath><clipPath id="76f319121b"><path d="M 0.488281 30 L 18 30 L 18 36 L 0.488281 36 Z M 0.488281 30 "/></clipPath><clipPath id="bc3a5c66e2"><path d="M 31 30 L 47.507812 30 L 47.507812 36 L 31 36 Z M 31 30 "/></clipPath><clipPath id="ed6751bc27"><path d="M 30 30 L 47.507812 30 L 47.507812 36 L 30 36 Z M 30 30 "/></clipPath><clipPath id="750b1752a6"><path d="M 11 41 L 37 41 L 37 44.878906 L 11 44.878906 Z M 11 41 "/></clipPath><clipPath id="20b249c66e"><path d="M 11 40 L 37 40 L 37 44.878906 L 11 44.878906 Z M 11 40 "/></clipPath><clipPath id="197a9d790c"><path d="M 22 2.265625 L 25 2.265625 L 25 10 L 22 10 Z M 22 2.265625 "/></clipPath></defs><g id="00fb8bce94"><g clip-rule="nonzero" clip-path="url(#6d761114b7)"><path style=" stroke:none;fill-rule:nonzero;fill:#fbc32d;fill-opacity:1;" d="M 23.992188 9.3125 C 23.4375 9.3125 22.992188 8.867188 22.992188 8.308594 L 22.992188 3.292969 C 22.992188 2.738281 23.4375 2.289062 23.992188 2.289062 C 24.542969 2.289062 24.992188 2.738281 24.992188 3.292969 L 24.992188 8.308594 C 24.992188 8.867188 24.542969 9.3125 23.992188 9.3125 "/></g><path style=" stroke:none;fill-rule:nonzero;fill:#fbc32d;fill-opacity:1;" d="M 17.207031 32.289062 C 18.625 32.019531 19.878906 32.261719 21.121094 33 C 22.191406 33.632812 23.089844 34.664062 24.433594 34.484375 C 25.761719 34.308594 26.710938 33.449219 27.816406 32.804688 C 28.9375 32.15625 29.980469 32.207031 31.046875 32.605469 C 33.753906 30.492188 35.5 27.195312 35.5 23.488281 C 35.5 17.113281 30.347656 11.945312 23.992188 11.945312 C 17.636719 11.945312 12.480469 17.113281 12.480469 23.488281 C 12.480469 27.105469 14.144531 30.335938 16.742188 32.453125 C 16.875 32.378906 17.03125 32.324219 17.207031 32.289062 "/><path style=" stroke:none;fill-rule:nonzero;fill:#fcdf8e;fill-opacity:1;" d="M 12.480469 23.488281 L 12.480469 23.476562 L 12.480469 23.488281 M 12.480469 23.476562 L 12.480469 23.46875 L 12.480469 23.476562 M 12.480469 23.46875 L 12.480469 23.460938 L 12.480469 23.46875 M 12.480469 23.457031 L 12.480469 23.453125 L 12.480469 23.457031 M 12.480469 23.449219 L 12.480469 23.441406 L 12.480469 23.449219 M 12.480469 23.4375 L 12.480469 23.433594 L 12.480469 23.4375 M 12.480469 23.429688 L 12.480469 23.421875 L 12.480469 23.429688 M 12.480469 23.417969 L 12.480469 23.414062 L 12.480469 23.417969 M 12.480469 23.410156 L 12.480469 23.40625 L 12.480469 23.410156 M 12.480469 23.402344 L 12.480469 23.394531 L 12.480469 23.402344 M 12.480469 23.390625 L 12.480469 23.386719 L 12.480469 23.390625 M 12.480469 23.382812 L 12.480469 23.378906 L 12.480469 23.382812 M 12.480469 23.375 L 12.480469 23.371094 L 12.480469 23.375 M 12.480469 23.367188 L 12.480469 23.359375 L 12.480469 23.367188 M 12.484375 23.355469 L 12.484375 23.351562 L 12.484375 23.355469 M 12.484375 23.34375 L 12.484375 23.335938 L 12.484375 23.34375 M 12.484375 23.335938 L 12.484375 23.328125 L 12.484375 23.335938 M 12.484375 23.324219 L 12.484375 23.320312 L 12.484375 23.324219 M 12.484375 23.316406 L 12.484375 23.3125 L 12.484375 23.316406 M 12.484375 23.308594 L 12.484375 23.304688 L 12.484375 23.308594 M 12.484375 23.300781 L 12.484375 23.292969 L 12.484375 23.300781 M 12.484375 23.289062 L 12.484375 23.285156 L 12.484375 23.289062 M 12.484375 23.28125 L 12.484375 23.273438 L 12.484375 23.28125 M 12.484375 23.273438 L 12.484375 23.265625 L 12.484375 23.273438 M 12.484375 23.261719 L 12.484375 23.257812 L 12.484375 23.261719 M 12.484375 23.253906 L 12.484375 23.25 L 12.484375 23.253906 M 12.484375 23.242188 L 12.484375 23.238281 L 12.484375 23.242188 M 12.484375 23.234375 L 12.484375 23.230469 L 12.484375 23.234375 M 12.484375 23.226562 L 12.484375 23.222656 L 12.484375 23.226562 M 12.484375 23.21875 L 12.484375 23.214844 L 12.484375 23.21875 M 12.484375 23.203125 L 12.484375 23.199219 L 12.484375 23.203125 M 12.484375 23.195312 L 12.484375 23.191406 L 12.484375 23.195312 M 12.484375 23.1875 L 12.484375 23.179688 L 12.484375 23.1875 M 12.484375 23.175781 L 12.484375 23.171875 L 12.484375 23.175781 M 12.484375 23.167969 L 12.484375 23.164062 L 12.484375 23.167969 M 12.484375 23.15625 L 12.484375 23.15625 M 12.488281 23.148438 L 12.488281 23.144531 L 12.488281 23.148438 M 12.488281 23.140625 L 12.488281 23.136719 L 12.488281 23.140625 M 12.488281 23.132812 L 12.488281 23.128906 L 12.488281 23.132812 M 12.488281 23.121094 L 12.488281 23.117188 L 12.488281 23.121094 M 12.488281 23.113281 L 12.488281 23.109375 L 12.488281 23.113281 M 12.488281 23.105469 L 12.488281 23.101562 L 12.488281 23.105469 M 12.488281 23.09375 L 12.488281 23.09375 M 12.488281 23.085938 L 12.488281 23.085938 M 12.488281 23.054688 L 12.488281 23.050781 L 12.488281 23.054688 M 12.492188 23.046875 L 12.492188 23.042969 L 12.492188 23.046875 M 12.492188 23.039062 L 12.492188 23.035156 L 12.492188 23.039062 M 12.492188 23.027344 L 12.492188 23.027344 M 12.492188 23.019531 L 12.492188 23.015625 L 12.492188 23.019531 M 12.492188 23.011719 L 12.492188 23.007812 L 12.492188 23.011719 M 12.492188 23 L 12.492188 22.996094 L 12.492188 23 M 12.492188 22.992188 L 12.492188 22.988281 L 12.492188 22.992188 M 12.492188 22.984375 L 12.492188 22.980469 L 12.492188 22.984375 M 12.492188 22.976562 L 12.492188 22.972656 L 12.492188 22.976562 M 12.496094 22.964844 L 12.496094 22.960938 L 12.496094 22.964844 M 12.496094 22.90625 L 12.496094 22.902344 L 12.496094 22.90625 M 12.496094 22.898438 L 12.496094 22.894531 L 12.496094 22.898438 M 12.496094 22.886719 L 12.496094 22.886719 M 12.496094 22.871094 L 12.496094 22.867188 L 12.496094 22.871094 M 12.5 22.863281 L 12.5 22.859375 L 12.5 22.863281 M 12.5 22.855469 L 12.5 22.851562 L 12.5 22.855469 M 12.503906 22.75 L 12.503906 22.75 "/><path style=" stroke:none;fill-rule:nonzero;fill:#f9b01f;fill-opacity:1;" d="M 23.988281 33.195312 C 22.949219 33.195312 22.476562 32.792969 21.820312 32.238281 C 21.070312 31.597656 20.136719 30.804688 18.363281 30.804688 C 17.199219 30.804688 16.394531 31.148438 15.769531 31.5625 C 13.738281 29.480469 12.480469 26.632812 12.480469 23.488281 L 12.480469 23.359375 C 12.480469 23.359375 12.480469 23.355469 12.484375 23.355469 L 12.484375 23.230469 C 12.484375 23.226562 12.484375 23.226562 12.484375 23.226562 L 12.484375 23.15625 C 12.488281 23.152344 12.488281 23.152344 12.488281 23.148438 L 12.488281 23.109375 C 12.488281 23.109375 12.488281 23.105469 12.488281 23.105469 L 12.488281 23.050781 C 12.488281 23.050781 12.488281 23.046875 12.492188 23.046875 L 12.492188 23.015625 C 12.492188 23.011719 12.492188 23.011719 12.492188 23.011719 L 12.492188 22.972656 C 12.492188 22.96875 12.492188 22.96875 12.496094 22.964844 L 12.496094 22.957031 C 12.496094 22.9375 12.496094 22.921875 12.496094 22.90625 L 12.496094 22.894531 C 12.496094 22.894531 12.496094 22.890625 12.496094 22.886719 L 12.496094 22.867188 C 12.496094 22.867188 12.5 22.863281 12.5 22.863281 L 12.5 22.835938 C 12.5 22.808594 12.503906 22.777344 12.503906 22.75 L 12.503906 22.742188 C 12.507812 22.738281 12.507812 22.734375 12.507812 22.734375 C 12.675781 20.101562 13.726562 17.707031 15.359375 15.847656 C 15.605469 15.925781 15.863281 15.96875 16.128906 15.96875 C 16.859375 15.96875 17.515625 15.660156 17.980469 15.167969 C 18.332031 15.367188 18.734375 15.480469 19.167969 15.480469 C 19.5625 15.480469 19.9375 15.386719 20.269531 15.214844 C 19.730469 16.136719 19.289062 17.121094 18.960938 18.167969 C 17.949219 21.414062 18.035156 25.308594 19.527344 28.394531 C 20.652344 30.714844 22.707031 32.265625 25.050781 33 C 24.761719 33.125 24.425781 33.195312 23.988281 33.195312 M 21.582031 13.339844 C 21.59375 13.242188 21.597656 13.144531 21.597656 13.042969 L 21.597656 13.03125 C 21.597656 12.75 21.546875 12.476562 21.457031 12.226562 C 21.898438 12.125 22.347656 12.050781 22.804688 12.003906 C 22.371094 12.429688 21.960938 12.871094 21.582031 13.339844 "/><g clip-rule="nonzero" clip-path="url(#d126fc36f2)"><path style=" stroke:none;fill-rule:nonzero;fill:#7bd3e2;fill-opacity:1;" d="M 46.496094 35.203125 C 44.726562 35.203125 43.789062 34.40625 43.039062 33.769531 C 42.382812 33.214844 41.910156 32.8125 40.871094 32.8125 C 39.832031 32.8125 39.359375 33.214844 38.703125 33.769531 C 37.953125 34.40625 37.015625 35.203125 35.242188 35.203125 C 33.46875 35.203125 32.535156 34.40625 31.78125 33.769531 C 31.128906 33.214844 30.65625 32.8125 29.617188 32.8125 C 28.578125 32.8125 28.105469 33.214844 27.449219 33.769531 C 26.699219 34.40625 25.765625 35.203125 23.988281 35.203125 C 22.214844 35.203125 21.28125 34.40625 20.53125 33.769531 C 19.875 33.214844 19.402344 32.8125 18.363281 32.8125 C 17.324219 32.8125 16.851562 33.214844 16.195312 33.769531 C 15.445312 34.40625 14.507812 35.203125 12.734375 35.203125 C 10.960938 35.203125 10.027344 34.40625 9.277344 33.769531 C 8.621094 33.214844 8.148438 32.8125 7.109375 32.8125 C 6.070312 32.8125 5.597656 33.214844 4.945312 33.769531 C 4.191406 34.40625 3.257812 35.203125 1.484375 35.203125 C 0.929688 35.203125 0.484375 34.75 0.484375 34.195312 C 0.484375 33.644531 0.929688 33.195312 1.484375 33.195312 C 2.523438 33.195312 2.996094 32.792969 3.648438 32.238281 C 4.402344 31.597656 5.335938 30.804688 7.109375 30.804688 C 8.882812 30.804688 9.816406 31.597656 10.570312 32.238281 C 11.222656 32.792969 11.695312 33.195312 12.734375 33.195312 C 13.777344 33.195312 14.246094 32.792969 14.902344 32.238281 C 15.652344 31.597656 16.589844 30.804688 18.363281 30.804688 C 20.136719 30.804688 21.070312 31.597656 21.820312 32.238281 C 22.476562 32.792969 22.949219 33.195312 23.988281 33.195312 C 25.03125 33.195312 25.503906 32.792969 26.15625 32.238281 C 26.90625 31.597656 27.84375 30.804688 29.617188 30.804688 C 31.390625 30.804688 32.324219 31.597656 33.078125 32.238281 C 33.730469 32.792969 34.203125 33.195312 35.242188 33.195312 C 36.28125 33.195312 36.757812 32.792969 37.410156 32.238281 C 38.160156 31.597656 39.097656 30.804688 40.871094 30.804688 C 42.644531 30.804688 43.582031 31.597656 44.332031 32.238281 C 44.984375 32.792969 45.457031 33.195312 46.496094 33.195312 C 47.050781 33.195312 47.5 33.644531 47.5 34.195312 C 47.5 34.75 47.050781 35.203125 46.496094 35.203125 "/></g><path style=" stroke:none;fill-rule:nonzero;fill:#7bd3e2;fill-opacity:1;" d="M 35.242188 40.421875 C 33.324219 40.421875 32.285156 39.539062 31.523438 38.894531 C 30.890625 38.355469 30.507812 38.03125 29.617188 38.03125 C 28.722656 38.03125 28.34375 38.355469 27.707031 38.894531 C 26.949219 39.539062 25.910156 40.421875 23.988281 40.421875 C 22.070312 40.421875 21.027344 39.539062 20.269531 38.894531 C 19.636719 38.355469 19.257812 38.03125 18.363281 38.03125 C 17.46875 38.03125 17.085938 38.355469 16.457031 38.894531 C 15.695312 39.539062 14.65625 40.421875 12.734375 40.421875 C 10.816406 40.421875 9.777344 39.539062 9.015625 38.894531 C 8.382812 38.355469 8.003906 38.03125 7.109375 38.03125 C 6.335938 38.03125 5.707031 37.402344 5.707031 36.625 C 5.707031 35.847656 6.335938 35.222656 7.109375 35.222656 C 9.03125 35.222656 10.070312 36.105469 10.828125 36.75 C 11.460938 37.285156 11.84375 37.613281 12.734375 37.613281 C 13.628906 37.613281 14.011719 37.285156 14.644531 36.75 C 15.402344 36.105469 16.441406 35.222656 18.363281 35.222656 C 20.28125 35.222656 21.324219 36.105469 22.082031 36.75 C 22.714844 37.285156 23.09375 37.613281 23.988281 37.613281 C 24.882812 37.613281 25.265625 37.285156 25.898438 36.75 C 26.65625 36.105469 27.695312 35.222656 29.617188 35.222656 C 31.539062 35.222656 32.574219 36.105469 33.335938 36.75 C 33.96875 37.285156 34.351562 37.613281 35.242188 37.613281 C 36.136719 37.613281 36.519531 37.285156 37.152344 36.75 C 37.910156 36.105469 38.949219 35.222656 40.871094 35.222656 C 41.644531 35.222656 42.273438 35.847656 42.273438 36.625 C 42.273438 37.402344 41.644531 38.03125 40.871094 38.03125 C 39.976562 38.03125 39.59375 38.355469 38.960938 38.894531 C 38.203125 39.539062 37.164062 40.421875 35.242188 40.421875 "/><g clip-rule="nonzero" clip-path="url(#d19dd4aa03)"><path style=" stroke:none;fill-rule:nonzero;fill:#7bd3e2;fill-opacity:1;" d="M 35.242188 44.839844 C 33.46875 44.839844 32.535156 44.042969 31.78125 43.402344 C 31.128906 42.847656 30.65625 42.449219 29.617188 42.449219 C 28.578125 42.449219 28.105469 42.847656 27.449219 43.402344 C 26.699219 44.042969 25.765625 44.839844 23.988281 44.839844 C 22.214844 44.839844 21.28125 44.042969 20.53125 43.402344 C 19.875 42.847656 19.402344 42.449219 18.363281 42.449219 C 17.324219 42.449219 16.851562 42.847656 16.195312 43.402344 C 15.445312 44.042969 14.507812 44.839844 12.734375 44.839844 C 12.183594 44.839844 11.734375 44.386719 11.734375 43.835938 C 11.734375 43.28125 12.183594 42.828125 12.734375 42.828125 C 13.777344 42.828125 14.246094 42.429688 14.902344 41.875 C 15.652344 41.234375 16.589844 40.441406 18.363281 40.441406 C 20.136719 40.441406 21.070312 41.234375 21.820312 41.875 C 22.476562 42.429688 22.949219 42.828125 23.988281 42.828125 C 25.03125 42.828125 25.503906 42.429688 26.15625 41.875 C 26.90625 41.234375 27.84375 40.441406 29.617188 40.441406 C 31.390625 40.441406 32.324219 41.234375 33.078125 41.875 C 33.730469 42.429688 34.203125 42.828125 35.242188 42.828125 C 35.796875 42.828125 36.246094 43.28125 36.246094 43.835938 C 36.246094 44.386719 35.796875 44.839844 35.242188 44.839844 "/></g><g clip-rule="nonzero" clip-path="url(#7c577ad4c2)"><path style=" stroke:none;fill-rule:nonzero;fill:#bce9ef;fill-opacity:1;" d="M 10.027344 34.363281 C 9.746094 34.167969 9.503906 33.960938 9.277344 33.769531 C 8.621094 33.214844 8.148438 32.8125 7.109375 32.8125 C 6.511719 32.8125 6.101562 32.945312 5.738281 33.164062 C 6.101562 32.945312 6.511719 32.8125 7.109375 32.8125 C 8.148438 32.8125 8.621094 33.214844 9.277344 33.769531 C 9.503906 33.960938 9.746094 34.167969 10.027344 34.363281 M 0.484375 34.179688 L 0.484375 34.175781 L 0.484375 34.179688 M 16.058594 33.886719 C 16.105469 33.847656 16.152344 33.808594 16.195312 33.769531 C 16.203125 33.761719 16.210938 33.753906 16.21875 33.75 L 16.195312 33.769531 C 16.152344 33.808594 16.105469 33.847656 16.058594 33.886719 M 0.703125 33.570312 C 0.886719 33.339844 1.167969 33.195312 1.484375 33.195312 C 2.523438 33.195312 2.996094 32.792969 3.648438 32.238281 C 4.402344 31.597656 5.335938 30.804688 7.109375 30.804688 C 5.335938 30.804688 4.402344 31.597656 3.648438 32.238281 C 2.996094 32.792969 2.523438 33.195312 1.484375 33.195312 C 1.167969 33.195312 0.886719 33.339844 0.703125 33.570312 M 12.738281 33.195312 C 11.695312 33.195312 11.222656 32.792969 10.570312 32.238281 C 9.984375 31.738281 9.285156 31.144531 8.160156 30.910156 C 9.285156 31.144531 9.984375 31.738281 10.570312 32.238281 C 11.226562 32.792969 11.695312 33.195312 12.738281 33.195312 C 13.777344 33.195312 14.246094 32.792969 14.902344 32.238281 C 14.246094 32.792969 13.777344 33.195312 12.738281 33.195312 M 14.902344 32.238281 C 14.945312 32.199219 14.988281 32.164062 15.035156 32.125 C 14.988281 32.164062 14.945312 32.199219 14.902344 32.238281 M 15.035156 32.125 C 15.035156 32.125 15.035156 32.125 15.035156 32.121094 C 15.035156 32.125 15.035156 32.125 15.035156 32.125 "/></g><g clip-rule="nonzero" clip-path="url(#76f319121b)"><path style=" stroke:none;fill-rule:nonzero;fill:#5bc8d8;fill-opacity:1;" d="M 12.734375 35.203125 C 11.5 35.203125 10.667969 34.816406 10.027344 34.363281 C 9.746094 34.167969 9.503906 33.960938 9.277344 33.769531 C 8.621094 33.214844 8.148438 32.8125 7.109375 32.8125 C 6.511719 32.8125 6.101562 32.945312 5.738281 33.164062 C 5.46875 33.324219 5.222656 33.53125 4.945312 33.769531 C 4.195312 34.402344 3.269531 35.191406 1.515625 35.203125 L 1.484375 35.203125 C 0.9375 35.203125 0.496094 34.765625 0.484375 34.222656 C 0.484375 34.210938 0.484375 34.207031 0.484375 34.195312 C 0.484375 34.191406 0.484375 34.183594 0.484375 34.179688 L 0.484375 34.175781 C 0.488281 33.949219 0.570312 33.738281 0.703125 33.570312 C 0.886719 33.339844 1.167969 33.195312 1.484375 33.195312 C 2.523438 33.195312 2.996094 32.792969 3.648438 32.238281 C 4.402344 31.597656 5.335938 30.804688 7.109375 30.804688 C 7.5 30.804688 7.847656 30.84375 8.160156 30.910156 C 9.285156 31.144531 9.984375 31.738281 10.570312 32.238281 C 11.222656 32.792969 11.695312 33.195312 12.734375 33.195312 C 13.777344 33.195312 14.246094 32.792969 14.902344 32.238281 C 14.945312 32.199219 14.988281 32.164062 15.035156 32.125 C 15.035156 32.125 15.035156 32.125 15.035156 32.121094 C 15.617188 31.632812 16.328125 31.085938 17.433594 30.886719 C 16.839844 31.742188 16.410156 32.714844 16.21875 33.75 C 16.210938 33.753906 16.203125 33.761719 16.195312 33.769531 C 16.152344 33.808594 16.105469 33.847656 16.058594 33.886719 C 15.339844 34.492188 14.421875 35.1875 12.792969 35.203125 L 12.734375 35.203125 "/></g><g clip-rule="nonzero" clip-path="url(#bc3a5c66e2)"><path style=" stroke:none;fill-rule:nonzero;fill:#bce9ef;fill-opacity:1;" d="M 46.496094 35.203125 L 46.441406 35.203125 L 46.496094 35.203125 C 47.050781 35.203125 47.5 34.75 47.5 34.195312 C 47.5 33.644531 47.050781 33.195312 46.496094 33.195312 C 45.671875 33.195312 45.207031 32.941406 44.71875 32.558594 C 45.207031 32.941406 45.671875 33.195312 46.496094 33.195312 C 47.050781 33.195312 47.5 33.644531 47.5 34.195312 C 47.5 34.75 47.050781 35.203125 46.496094 35.203125 M 35.242188 35.203125 C 35.945312 35.203125 36.515625 35.078125 36.992188 34.886719 C 36.515625 35.078125 35.945312 35.203125 35.242188 35.203125 M 38.074219 34.277344 C 38.304688 34.109375 38.507812 33.933594 38.703125 33.769531 C 39.359375 33.214844 39.832031 32.8125 40.871094 32.8125 C 41.910156 32.8125 42.382812 33.214844 43.039062 33.769531 C 42.382812 33.214844 41.910156 32.8125 40.871094 32.8125 C 39.828125 32.8125 39.359375 33.214844 38.703125 33.769531 C 38.507812 33.933594 38.304688 34.109375 38.074219 34.277344 M 31.933594 33.898438 C 31.882812 33.855469 31.832031 33.8125 31.78125 33.769531 L 31.773438 33.761719 C 31.777344 33.765625 31.78125 33.765625 31.78125 33.769531 C 31.832031 33.8125 31.882812 33.855469 31.933594 33.898438 M 35.242188 33.195312 C 34.203125 33.195312 33.730469 32.792969 33.078125 32.238281 C 33.730469 32.792969 34.203125 33.195312 35.242188 33.195312 C 36.082031 33.195312 36.550781 32.933594 37.046875 32.539062 C 36.550781 32.933594 36.082031 33.195312 35.242188 33.195312 M 33.078125 32.238281 C 33.074219 32.234375 33.070312 32.234375 33.070312 32.234375 C 33.070312 32.234375 33.074219 32.234375 33.078125 32.238281 M 39.84375 30.902344 L 39.84375 30.902344 M 39.84375 30.902344 C 40.152344 30.839844 40.492188 30.804688 40.871094 30.804688 C 40.492188 30.804688 40.152344 30.839844 39.84375 30.902344 "/></g><g clip-rule="nonzero" clip-path="url(#ed6751bc27)"><path style=" stroke:none;fill-rule:nonzero;fill:#5bc8d8;fill-opacity:1;" d="M 46.496094 35.203125 L 46.441406 35.203125 C 44.703125 35.183594 43.78125 34.398438 43.039062 33.769531 C 42.382812 33.214844 41.910156 32.8125 40.871094 32.8125 C 39.832031 32.8125 39.359375 33.214844 38.703125 33.769531 C 38.507812 33.933594 38.304688 34.109375 38.074219 34.277344 C 37.765625 34.503906 37.414062 34.722656 36.992188 34.886719 C 36.515625 35.078125 35.945312 35.203125 35.242188 35.203125 C 33.585938 35.203125 32.660156 34.507812 31.933594 33.898438 C 31.882812 33.855469 31.832031 33.8125 31.78125 33.769531 C 31.78125 33.765625 31.777344 33.765625 31.773438 33.761719 C 31.542969 32.722656 31.132812 31.75 30.570312 30.890625 C 31.746094 31.109375 32.46875 31.722656 33.070312 32.234375 C 33.070312 32.234375 33.074219 32.234375 33.078125 32.238281 C 33.730469 32.792969 34.203125 33.195312 35.242188 33.195312 C 36.082031 33.195312 36.550781 32.933594 37.046875 32.539062 C 37.164062 32.445312 37.285156 32.34375 37.410156 32.238281 C 38 31.734375 38.707031 31.136719 39.84375 30.902344 C 40.152344 30.839844 40.492188 30.804688 40.871094 30.804688 C 42.644531 30.804688 43.582031 31.597656 44.332031 32.238281 C 44.464844 32.351562 44.59375 32.460938 44.71875 32.558594 C 45.207031 32.941406 45.671875 33.195312 46.496094 33.195312 C 47.050781 33.195312 47.5 33.644531 47.5 34.195312 C 47.5 34.75 47.050781 35.203125 46.496094 35.203125 "/></g><path style=" stroke:none;fill-rule:nonzero;fill:#bce9ef;fill-opacity:1;" d="M 16.457031 38.894531 C 16.613281 38.757812 16.757812 38.636719 16.894531 38.53125 C 16.757812 38.636719 16.613281 38.757812 16.457031 38.894531 M 8.285156 38.328125 C 7.964844 38.136719 7.621094 38.03125 7.109375 38.03125 C 6.335938 38.03125 5.707031 37.402344 5.707031 36.625 C 5.707031 35.847656 6.335938 35.222656 7.109375 35.222656 C 6.335938 35.222656 5.707031 35.847656 5.707031 36.625 C 5.707031 37.402344 6.335938 38.03125 7.109375 38.03125 C 7.621094 38.03125 7.964844 38.136719 8.285156 38.328125 M 12.910156 37.605469 C 13.683594 37.566406 14.054688 37.25 14.644531 36.75 C 14.6875 36.710938 14.730469 36.671875 14.777344 36.632812 L 14.644531 36.75 C 14.054688 37.25 13.683594 37.566406 12.910156 37.605469 M 10.789062 36.714844 C 10.199219 36.214844 9.441406 35.585938 8.242188 35.335938 C 9.441406 35.585938 10.199219 36.214844 10.789062 36.714844 "/><path style=" stroke:none;fill-rule:nonzero;fill:#5bc8d8;fill-opacity:1;" d="M 12.734375 40.421875 C 10.816406 40.421875 9.777344 39.539062 9.015625 38.894531 C 8.746094 38.664062 8.523438 38.472656 8.285156 38.328125 C 7.964844 38.136719 7.621094 38.03125 7.109375 38.03125 C 6.335938 38.03125 5.707031 37.402344 5.707031 36.625 C 5.707031 35.847656 6.335938 35.222656 7.109375 35.222656 C 7.527344 35.222656 7.902344 35.261719 8.242188 35.335938 C 9.441406 35.585938 10.199219 36.214844 10.789062 36.714844 C 10.800781 36.726562 10.816406 36.738281 10.828125 36.75 C 11.460938 37.285156 11.84375 37.613281 12.734375 37.613281 C 12.796875 37.613281 12.855469 37.609375 12.910156 37.605469 C 13.683594 37.566406 14.054688 37.25 14.644531 36.75 L 14.777344 36.632812 C 15.144531 36.324219 15.582031 35.980469 16.140625 35.707031 C 16.234375 36.703125 16.496094 37.65625 16.894531 38.53125 C 16.757812 38.636719 16.613281 38.757812 16.457031 38.894531 C 15.695312 39.539062 14.65625 40.421875 12.734375 40.421875 "/><path style=" stroke:none;fill-rule:nonzero;fill:#bce9ef;fill-opacity:1;" d="M 35.242188 40.421875 C 36.121094 40.421875 36.816406 40.234375 37.382812 39.972656 C 36.816406 40.234375 36.121094 40.421875 35.242188 40.421875 M 37.386719 39.972656 L 37.390625 39.972656 L 37.386719 39.972656 M 38 39.632812 C 38.375 39.390625 38.6875 39.125 38.960938 38.894531 C 39.59375 38.355469 39.976562 38.03125 40.871094 38.03125 C 41.644531 38.03125 42.273438 37.402344 42.273438 36.625 C 42.273438 37.402344 41.644531 38.03125 40.871094 38.03125 C 39.976562 38.03125 39.59375 38.355469 38.960938 38.894531 C 38.6875 39.125 38.375 39.390625 38 39.632812 M 31.523438 38.894531 C 31.425781 38.808594 31.335938 38.734375 31.246094 38.660156 C 31.335938 38.730469 31.425781 38.808594 31.523438 38.894531 M 35.242188 37.613281 C 34.707031 37.613281 34.355469 37.496094 34.023438 37.285156 C 34.355469 37.496094 34.707031 37.613281 35.242188 37.613281 M 36.269531 37.394531 C 36.566406 37.246094 36.824219 37.023438 37.152344 36.75 C 37.910156 36.105469 38.949219 35.222656 40.871094 35.222656 C 38.949219 35.222656 37.910156 36.105469 37.152344 36.75 C 36.824219 37.023438 36.566406 37.246094 36.269531 37.394531 "/><path style=" stroke:none;fill-rule:nonzero;fill:#5bc8d8;fill-opacity:1;" d="M 35.242188 40.421875 C 33.324219 40.421875 32.285156 39.539062 31.523438 38.894531 C 31.425781 38.808594 31.335938 38.730469 31.246094 38.660156 C 31.683594 37.769531 31.945312 36.796875 31.976562 35.777344 C 32.539062 36.074219 32.96875 36.4375 33.335938 36.75 C 33.589844 36.964844 33.800781 37.144531 34.023438 37.285156 C 34.355469 37.496094 34.707031 37.613281 35.242188 37.613281 C 35.675781 37.613281 35.988281 37.535156 36.269531 37.394531 C 36.566406 37.246094 36.824219 37.023438 37.152344 36.75 C 37.910156 36.105469 38.949219 35.222656 40.871094 35.222656 C 41.644531 35.222656 42.273438 35.847656 42.273438 36.625 C 42.273438 37.402344 41.644531 38.03125 40.871094 38.03125 C 39.976562 38.03125 39.59375 38.355469 38.960938 38.894531 C 38.6875 39.125 38.375 39.390625 38 39.632812 C 38 39.636719 37.996094 39.636719 37.996094 39.636719 C 37.808594 39.753906 37.609375 39.871094 37.390625 39.972656 L 37.382812 39.972656 C 36.816406 40.234375 36.121094 40.421875 35.242188 40.421875 "/><g clip-rule="nonzero" clip-path="url(#750b1752a6)"><path style=" stroke:none;fill-rule:nonzero;fill:#bce9ef;fill-opacity:1;" d="M 35.242188 44.839844 C 34.332031 44.839844 33.640625 44.628906 33.082031 44.335938 C 33.640625 44.628906 34.332031 44.839844 35.242188 44.839844 C 35.796875 44.839844 36.246094 44.386719 36.246094 43.835938 C 36.246094 43.28125 35.796875 42.828125 35.242188 42.828125 C 34.203125 42.828125 33.730469 42.429688 33.078125 41.875 C 33.730469 42.429688 34.203125 42.828125 35.242188 42.828125 C 35.796875 42.828125 36.246094 43.28125 36.246094 43.835938 C 36.246094 44.386719 35.796875 44.839844 35.242188 44.839844 M 23.988281 44.839844 C 22.214844 44.839844 21.28125 44.042969 20.53125 43.402344 C 19.875 42.847656 19.402344 42.449219 18.363281 42.449219 C 19.402344 42.449219 19.875 42.847656 20.53125 43.402344 C 21.28125 44.042969 22.214844 44.839844 23.988281 44.839844 C 25.183594 44.839844 25.996094 44.476562 26.632812 44.046875 C 25.996094 44.476562 25.183594 44.839844 23.988281 44.839844 M 12.734375 44.839844 C 12.183594 44.839844 11.734375 44.386719 11.734375 43.835938 C 11.734375 43.285156 12.171875 42.839844 12.71875 42.828125 C 12.171875 42.839844 11.734375 43.285156 11.734375 43.835938 C 11.734375 44.386719 12.183594 44.839844 12.734375 44.839844 C 13.960938 44.839844 14.785156 44.460938 15.425781 44.015625 C 14.785156 44.460938 13.960938 44.839844 12.734375 44.839844 M 27.449219 43.402344 C 28.105469 42.847656 28.578125 42.449219 29.617188 42.449219 L 29.683594 42.449219 L 29.617188 42.449219 C 28.578125 42.449219 28.105469 42.847656 27.449219 43.402344 M 12.734375 42.828125 C 13.765625 42.828125 14.238281 42.4375 14.882812 41.890625 C 14.238281 42.4375 13.765625 42.828125 12.734375 42.828125 M 14.902344 41.875 C 14.9375 41.84375 14.976562 41.8125 15.011719 41.78125 C 14.976562 41.8125 14.9375 41.84375 14.902344 41.875 "/></g><g clip-rule="nonzero" clip-path="url(#20b249c66e)"><path style=" stroke:none;fill-rule:nonzero;fill:#5bc8d8;fill-opacity:1;" d="M 35.242188 44.839844 C 34.332031 44.839844 33.640625 44.628906 33.082031 44.335938 C 32.554688 44.0625 32.148438 43.714844 31.78125 43.402344 C 31.144531 42.863281 30.675781 42.464844 29.683594 42.449219 L 29.617188 42.449219 C 28.578125 42.449219 28.105469 42.847656 27.449219 43.402344 C 27.203125 43.613281 26.941406 43.839844 26.632812 44.046875 C 25.996094 44.476562 25.183594 44.839844 23.988281 44.839844 C 22.214844 44.839844 21.28125 44.042969 20.53125 43.402344 C 19.875 42.847656 19.402344 42.449219 18.363281 42.449219 C 17.324219 42.449219 16.851562 42.847656 16.195312 43.402344 C 15.964844 43.601562 15.714844 43.816406 15.425781 44.015625 C 14.785156 44.460938 13.960938 44.839844 12.734375 44.839844 C 12.183594 44.839844 11.734375 44.386719 11.734375 43.835938 C 11.734375 43.285156 12.171875 42.839844 12.71875 42.828125 L 12.734375 42.828125 C 13.765625 42.828125 14.238281 42.4375 14.882812 41.890625 C 14.890625 41.882812 14.898438 41.878906 14.902344 41.875 C 14.9375 41.84375 14.976562 41.8125 15.011719 41.78125 C 15.707031 41.195312 16.578125 40.515625 18.105469 40.449219 C 19.53125 42.140625 21.613281 43.230469 24.042969 43.230469 C 26.304688 43.230469 28.511719 42.140625 30.023438 40.457031 C 31.535156 40.566406 32.382812 41.285156 33.078125 41.875 C 33.730469 42.429688 34.203125 42.828125 35.242188 42.828125 C 35.796875 42.828125 36.246094 43.28125 36.246094 43.835938 C 36.246094 44.386719 35.796875 44.839844 35.242188 44.839844 "/></g><path style=" stroke:none;fill-rule:nonzero;fill:#fbc32d;fill-opacity:1;" d="M 10.5625 20.609375 C 10.445312 20.609375 10.324219 20.589844 10.207031 20.546875 L 5.527344 18.777344 C 5.007812 18.585938 4.746094 18.007812 4.941406 17.484375 C 5.136719 16.96875 5.710938 16.703125 6.230469 16.898438 L 10.914062 18.667969 C 11.433594 18.863281 11.691406 19.441406 11.496094 19.960938 C 11.347656 20.363281 10.96875 20.609375 10.5625 20.609375 "/><path style=" stroke:none;fill-rule:nonzero;fill:#fbc32d;fill-opacity:1;" d="M 10.878906 29.992188 L 5.878906 29.992188 C 5.324219 29.992188 4.875 29.542969 4.875 28.988281 C 4.875 28.433594 5.324219 27.984375 5.878906 27.984375 L 10.878906 27.984375 C 11.433594 27.984375 11.882812 28.433594 11.882812 28.988281 C 11.882812 29.542969 11.433594 29.992188 10.878906 29.992188 "/><path style=" stroke:none;fill-rule:nonzero;fill:#fbc32d;fill-opacity:1;" d="M 32.210938 12.183594 C 31.9375 12.183594 31.667969 12.078125 31.472656 11.863281 C 31.097656 11.457031 31.125 10.820312 31.527344 10.445312 L 35.207031 7.042969 C 35.613281 6.664062 36.246094 6.691406 36.621094 7.097656 C 36.996094 7.507812 36.96875 8.140625 36.566406 8.515625 L 32.886719 11.921875 C 32.695312 12.097656 32.449219 12.183594 32.210938 12.183594 "/><path style=" stroke:none;fill-rule:nonzero;fill:#fbc32d;fill-opacity:1;" d="M 42.105469 29.992188 L 37.101562 29.992188 C 36.550781 29.992188 36.101562 29.542969 36.101562 28.988281 C 36.101562 28.433594 36.550781 27.984375 37.101562 27.984375 L 42.105469 27.984375 C 42.660156 27.984375 43.105469 28.433594 43.105469 28.988281 C 43.105469 29.542969 42.660156 29.992188 42.105469 29.992188 "/><g clip-rule="nonzero" clip-path="url(#197a9d790c)"><path style=" stroke:none;fill-rule:nonzero;fill:#fcdf8e;fill-opacity:1;" d="M 23.992188 9.3125 C 23.4375 9.3125 22.992188 8.867188 22.992188 8.308594 L 22.992188 3.292969 C 22.992188 2.949219 23.160156 2.648438 23.421875 2.464844 C 23.160156 2.648438 22.992188 2.949219 22.992188 3.292969 L 22.992188 8.308594 C 22.992188 8.867188 23.4375 9.3125 23.992188 9.3125 L 23.996094 9.3125 L 23.992188 9.3125 M 23.996094 9.3125 L 23.996094 9.3125 M 24 9.3125 L 24 9.3125 M 24 9.3125 L 24.003906 9.3125 L 24 9.3125 M 23.96875 2.289062 C 23.96875 2.289062 23.96875 2.289062 23.972656 2.289062 C 23.96875 2.289062 23.96875 2.289062 23.96875 2.289062 "/><path style=" stroke:none;fill-rule:nonzero;fill:#f9b01f;fill-opacity:1;" d="M 23.992188 9.3125 C 23.4375 9.3125 22.992188 8.867188 22.992188 8.308594 L 22.992188 3.292969 C 22.992188 2.949219 23.160156 2.648438 23.421875 2.464844 C 23.578125 2.359375 23.765625 2.292969 23.96875 2.289062 C 23.96875 2.289062 23.96875 2.289062 23.972656 2.289062 L 23.992188 2.289062 C 24.050781 2.289062 24.113281 2.296875 24.167969 2.304688 C 23.351562 4.285156 23.464844 7.101562 24.878906 8.769531 C 24.714844 9.085938 24.386719 9.308594 24.003906 9.3125 L 23.992188 9.3125 "/></g><path style=" stroke:none;fill-rule:nonzero;fill:#fcdf8e;fill-opacity:1;" d="M 5.328125 18.679688 L 5.328125 18.679688 M 5.328125 18.679688 L 5.324219 18.675781 L 5.328125 18.679688 M 5.324219 18.675781 C 5.265625 18.636719 5.210938 18.59375 5.160156 18.539062 C 5.210938 18.59375 5.265625 18.636719 5.324219 18.675781 "/><path style=" stroke:none;fill-rule:nonzero;fill:#f9b01f;fill-opacity:1;" d="M 10.5625 20.609375 C 10.445312 20.609375 10.324219 20.589844 10.207031 20.546875 L 5.527344 18.777344 C 5.453125 18.753906 5.386719 18.71875 5.328125 18.679688 L 5.324219 18.675781 C 5.265625 18.636719 5.210938 18.59375 5.160156 18.539062 C 4.898438 18.269531 4.800781 17.859375 4.941406 17.484375 C 5.019531 17.285156 5.152344 17.121094 5.320312 17.007812 C 5.992188 18.351562 7.84375 19.082031 9.203125 19.316406 C 9.632812 19.386719 10.066406 19.429688 10.492188 19.429688 C 10.84375 19.429688 11.1875 19.402344 11.523438 19.335938 C 11.578125 19.535156 11.574219 19.753906 11.496094 19.960938 C 11.347656 20.363281 10.96875 20.609375 10.5625 20.609375 "/><path style=" stroke:none;fill-rule:nonzero;fill:#fcdf8e;fill-opacity:1;" d="M 10.878906 29.992188 L 5.878906 29.992188 C 5.5625 29.992188 5.277344 29.84375 5.097656 29.617188 C 5.277344 29.84375 5.5625 29.992188 5.878906 29.992188 L 10.878906 29.992188 C 11.433594 29.992188 11.882812 29.542969 11.882812 28.988281 C 11.882812 28.972656 11.878906 28.960938 11.878906 28.945312 C 11.878906 28.960938 11.882812 28.972656 11.882812 28.988281 C 11.882812 29.542969 11.433594 29.992188 10.878906 29.992188 M 4.878906 29.011719 C 4.875 29.003906 4.875 28.996094 4.875 28.988281 C 4.875 28.996094 4.875 29.003906 4.878906 29.011719 M 4.875 28.988281 L 4.875 28.984375 L 4.875 28.988281 M 4.875 28.984375 L 4.875 28.980469 L 4.875 28.984375 "/><path style=" stroke:none;fill-rule:nonzero;fill:#f9b01f;fill-opacity:1;" d="M 10.878906 29.992188 L 5.878906 29.992188 C 5.5625 29.992188 5.277344 29.84375 5.097656 29.617188 C 4.960938 29.449219 4.882812 29.238281 4.878906 29.011719 C 4.875 29.003906 4.875 28.996094 4.875 28.988281 L 4.875 28.980469 C 4.878906 28.761719 4.953125 28.558594 5.074219 28.394531 C 6.277344 28.949219 7.617188 29.304688 8.886719 29.304688 C 9.929688 29.304688 10.921875 29.066406 11.753906 28.503906 C 11.828125 28.636719 11.875 28.785156 11.878906 28.945312 C 11.878906 28.960938 11.882812 28.972656 11.882812 28.988281 C 11.882812 29.542969 11.433594 29.992188 10.878906 29.992188 "/><path style=" stroke:none;fill-rule:nonzero;fill:#fcdf8e;fill-opacity:1;" d="M 36.621094 7.101562 C 36.621094 7.101562 36.621094 7.101562 36.621094 7.097656 C 36.621094 7.101562 36.621094 7.101562 36.621094 7.101562 M 36.621094 7.097656 C 36.570312 7.042969 36.515625 6.996094 36.457031 6.953125 C 36.515625 6.996094 36.570312 7.042969 36.621094 7.097656 M 36.457031 6.953125 L 36.457031 6.953125 M 35.421875 6.890625 C 35.566406 6.8125 35.726562 6.773438 35.882812 6.773438 C 36.015625 6.773438 36.152344 6.800781 36.273438 6.855469 C 36.152344 6.800781 36.015625 6.773438 35.882812 6.773438 C 35.726562 6.773438 35.566406 6.8125 35.421875 6.890625 M 36.273438 6.855469 L 36.273438 6.855469 "/><path style=" stroke:none;fill-rule:nonzero;fill:#f9b01f;fill-opacity:1;" d="M 31.988281 12.160156 C 31.796875 12.117188 31.617188 12.019531 31.472656 11.863281 C 31.097656 11.457031 31.125 10.820312 31.527344 10.445312 L 35.207031 7.042969 C 35.273438 6.980469 35.34375 6.929688 35.421875 6.890625 C 35.566406 6.8125 35.726562 6.773438 35.882812 6.773438 C 36.015625 6.773438 36.152344 6.800781 36.273438 6.855469 C 36.335938 6.878906 36.394531 6.914062 36.453125 6.953125 C 36.453125 6.953125 36.457031 6.953125 36.457031 6.953125 C 36.515625 6.996094 36.570312 7.042969 36.621094 7.097656 C 36.621094 7.101562 36.621094 7.101562 36.621094 7.101562 L 36.625 7.101562 C 36.6875 7.171875 36.734375 7.25 36.773438 7.332031 C 34.4375 8.050781 32.308594 9.71875 31.988281 12.160156 "/><path style=" stroke:none;fill-rule:nonzero;fill:#f9b01f;fill-opacity:1;" d="M 42.945312 29.53125 C 42.046875 29.042969 41.027344 28.765625 39.941406 28.65625 C 39.699219 28.628906 39.445312 28.617188 39.183594 28.617188 C 38.15625 28.617188 37.054688 28.824219 36.171875 29.351562 C 36.125 29.238281 36.101562 29.117188 36.101562 28.988281 C 36.101562 28.433594 36.550781 27.984375 37.101562 27.984375 L 42.105469 27.984375 C 42.660156 27.984375 43.105469 28.433594 43.105469 28.988281 L 43.105469 28.996094 C 43.105469 29.191406 43.042969 29.375 42.945312 29.53125 "/><path style=" stroke:none;fill-rule:nonzero;fill:#ffffff;fill-opacity:1;" d="M 19.167969 10.605469 C 19 10.605469 18.835938 10.621094 18.675781 10.652344 C 18.640625 9.542969 17.730469 8.652344 16.617188 8.652344 C 16.347656 8.652344 16.089844 8.707031 15.855469 8.800781 C 15.457031 7.585938 14.316406 6.707031 12.96875 6.707031 C 11.480469 6.707031 10.246094 7.777344 9.984375 9.195312 C 9.808594 9.160156 9.628906 9.144531 9.445312 9.144531 C 7.835938 9.144531 6.53125 10.453125 6.53125 12.066406 C 6.53125 13.683594 7.835938 14.992188 9.445312 14.992188 C 9.488281 14.992188 9.53125 14.988281 9.574219 14.984375 C 9.933594 16.121094 10.992188 16.945312 12.242188 16.945312 C 13.289062 16.945312 14.199219 16.367188 14.675781 15.511719 C 15.089844 15.800781 15.589844 15.96875 16.128906 15.96875 C 16.859375 15.96875 17.515625 15.660156 17.980469 15.167969 C 18.332031 15.367188 18.734375 15.480469 19.167969 15.480469 C 20.511719 15.480469 21.597656 14.390625 21.597656 13.042969 C 21.597656 11.695312 20.511719 10.605469 19.167969 10.605469 "/><path style=" stroke:none;fill-rule:nonzero;fill:#bde9ef;fill-opacity:1;" d="M 12.246094 15.648438 L 12.238281 15.648438 C 11.070312 15.644531 10.304688 14.667969 10.144531 13.601562 C 8.78125 13.460938 7.582031 12.625 7.089844 11.21875 C 7.019531 11.019531 6.964844 10.804688 6.933594 10.585938 C 6.679688 11.019531 6.53125 11.519531 6.53125 12.054688 C 6.535156 10.445312 7.839844 9.144531 9.445312 9.144531 C 9.628906 9.144531 9.808594 9.160156 9.984375 9.195312 C 10.246094 7.777344 11.480469 6.707031 12.96875 6.707031 C 14.316406 6.707031 15.457031 7.585938 15.855469 8.800781 C 16.089844 8.707031 16.347656 8.652344 16.617188 8.652344 C 17.730469 8.652344 18.640625 9.542969 18.675781 10.652344 C 18.835938 10.621094 19 10.605469 19.167969 10.605469 C 20.507812 10.605469 21.59375 11.691406 21.597656 13.03125 C 21.597656 12.570312 21.464844 12.140625 21.238281 11.773438 C 21.121094 12.335938 20.878906 12.875 20.5 13.304688 C 19.957031 13.914062 19.230469 14.195312 18.503906 14.195312 C 18.113281 14.195312 17.722656 14.113281 17.359375 13.960938 L 17.347656 13.980469 C 17.039062 14.460938 16.503906 14.699219 15.945312 14.710938 L 15.894531 14.710938 C 15.335938 14.710938 14.777344 14.507812 14.316406 14.171875 C 13.855469 14.972656 13.234375 15.648438 12.246094 15.648438 M 21.597656 13.042969 L 21.597656 13.035156 L 21.597656 13.042969 M 21.597656 13.035156 L 21.597656 13.03125 L 21.597656 13.035156 M 6.53125 12.066406 L 6.53125 12.0625 L 6.53125 12.066406 M 6.53125 12.058594 L 6.53125 12.054688 L 6.53125 12.058594 "/><path style=" stroke:none;fill-rule:nonzero;fill:#9fdfe7;fill-opacity:1;" d="M 12.242188 16.945312 C 10.992188 16.945312 9.933594 16.121094 9.574219 14.984375 C 9.53125 14.988281 9.488281 14.992188 9.445312 14.992188 C 7.835938 14.992188 6.53125 13.683594 6.53125 12.066406 L 6.53125 12.054688 C 6.53125 11.519531 6.679688 11.019531 6.933594 10.585938 C 6.964844 10.804688 7.019531 11.019531 7.089844 11.21875 C 7.582031 12.625 8.78125 13.460938 10.144531 13.601562 C 10.304688 14.667969 11.070312 15.644531 12.238281 15.648438 L 12.246094 15.648438 C 13.234375 15.648438 13.855469 14.972656 14.316406 14.171875 C 14.777344 14.507812 15.335938 14.710938 15.894531 14.710938 L 15.945312 14.710938 C 16.503906 14.699219 17.039062 14.460938 17.347656 13.980469 L 17.359375 13.960938 C 17.722656 14.113281 18.113281 14.195312 18.503906 14.195312 C 19.230469 14.195312 19.957031 13.914062 20.5 13.304688 C 20.878906 12.875 21.121094 12.335938 21.238281 11.773438 C 21.464844 12.140625 21.597656 12.570312 21.597656 13.03125 L 21.597656 13.042969 C 21.597656 14.390625 20.511719 15.480469 19.167969 15.480469 C 18.734375 15.480469 18.332031 15.367188 17.980469 15.167969 C 17.515625 15.660156 16.859375 15.96875 16.128906 15.96875 C 15.589844 15.96875 15.089844 15.800781 14.675781 15.511719 C 14.199219 16.367188 13.289062 16.945312 12.242188 16.945312 "/><path style=" stroke:none;fill-rule:nonzero;fill:#ffffff;fill-opacity:1;" d="M 42.6875 18.855469 C 42.535156 18.855469 42.386719 18.871094 42.246094 18.898438 C 42.210938 17.898438 41.390625 17.097656 40.386719 17.097656 C 40.140625 17.097656 39.910156 17.144531 39.699219 17.226562 C 39.339844 16.128906 38.308594 15.335938 37.09375 15.335938 C 35.753906 15.335938 34.640625 16.304688 34.40625 17.582031 C 34.246094 17.550781 34.085938 17.535156 33.917969 17.535156 C 32.464844 17.535156 31.285156 18.714844 31.285156 20.175781 C 31.285156 21.632812 32.464844 22.8125 33.917969 22.8125 C 33.957031 22.8125 33.996094 22.808594 34.035156 22.808594 C 34.355469 23.828125 35.3125 24.570312 36.4375 24.570312 C 37.382812 24.570312 38.203125 24.050781 38.636719 23.28125 C 39.007812 23.539062 39.460938 23.691406 39.945312 23.691406 C 40.601562 23.691406 41.195312 23.414062 41.613281 22.96875 C 41.929688 23.148438 42.296875 23.253906 42.6875 23.253906 C 43.898438 23.253906 44.878906 22.269531 44.878906 21.054688 C 44.878906 19.839844 43.898438 18.855469 42.6875 18.855469 "/><path style=" stroke:none;fill-rule:nonzero;fill:#bde9ef;fill-opacity:1;" d="M 36.757812 22.789062 C 36.679688 22.789062 36.59375 22.78125 36.503906 22.773438 C 35.625 22.675781 35.085938 22.078125 34.867188 21.339844 C 34.828125 21.339844 34.792969 21.339844 34.757812 21.339844 C 33.96875 21.339844 33.167969 21 32.613281 20.402344 C 32.160156 19.914062 31.941406 19.171875 31.949219 18.429688 C 31.542969 18.890625 31.292969 19.492188 31.285156 20.152344 C 31.296875 18.707031 32.46875 17.535156 33.917969 17.535156 C 34.085938 17.535156 34.246094 17.550781 34.40625 17.582031 C 34.640625 16.304688 35.753906 15.335938 37.09375 15.335938 C 38.308594 15.335938 39.339844 16.128906 39.699219 17.226562 C 39.910156 17.144531 40.140625 17.097656 40.386719 17.097656 C 41.390625 17.097656 42.210938 17.898438 42.246094 18.898438 C 42.386719 18.871094 42.535156 18.855469 42.6875 18.855469 C 43.890625 18.855469 44.871094 19.832031 44.878906 21.039062 C 44.875 20.457031 44.644531 19.929688 44.269531 19.539062 C 44.292969 20.191406 44.09375 20.832031 43.550781 21.34375 C 43.09375 21.773438 42.507812 21.976562 41.925781 21.976562 C 41.707031 21.976562 41.484375 21.945312 41.269531 21.886719 C 40.988281 22.265625 40.546875 22.507812 39.941406 22.507812 C 39.898438 22.507812 39.859375 22.507812 39.816406 22.503906 C 39.285156 22.476562 38.777344 22.257812 38.355469 21.925781 C 37.972656 22.429688 37.472656 22.789062 36.757812 22.789062 "/><path style=" stroke:none;fill-rule:nonzero;fill:#9fdfe7;fill-opacity:1;" d="M 36.4375 24.570312 C 36.09375 24.570312 35.765625 24.5 35.46875 24.378906 C 34.785156 24.089844 34.257812 23.515625 34.035156 22.808594 C 33.996094 22.808594 33.957031 22.8125 33.917969 22.8125 C 32.464844 22.8125 31.285156 21.632812 31.285156 20.175781 L 31.285156 20.152344 C 31.292969 19.492188 31.542969 18.890625 31.949219 18.429688 C 31.941406 19.171875 32.160156 19.914062 32.613281 20.402344 C 33.167969 21 33.96875 21.339844 34.757812 21.339844 C 34.792969 21.339844 34.828125 21.339844 34.867188 21.339844 C 35.085938 22.078125 35.625 22.675781 36.503906 22.773438 C 36.59375 22.78125 36.679688 22.789062 36.757812 22.789062 C 37.472656 22.789062 37.972656 22.429688 38.355469 21.925781 C 38.777344 22.257812 39.285156 22.476562 39.816406 22.503906 C 39.859375 22.507812 39.898438 22.507812 39.941406 22.507812 C 40.546875 22.507812 40.988281 22.265625 41.269531 21.886719 C 41.484375 21.945312 41.707031 21.976562 41.925781 21.976562 C 42.507812 21.976562 43.09375 21.773438 43.550781 21.34375 C 44.09375 20.832031 44.292969 20.191406 44.269531 19.539062 C 44.644531 19.929688 44.875 20.457031 44.878906 21.039062 L 44.878906 21.054688 C 44.878906 22.269531 43.898438 23.253906 42.6875 23.253906 C 42.296875 23.253906 41.929688 23.148438 41.613281 22.96875 C 41.195312 23.414062 40.601562 23.691406 39.945312 23.691406 C 39.460938 23.691406 39.007812 23.539062 38.636719 23.28125 C 38.203125 24.050781 37.382812 24.570312 36.4375 24.570312 "/></g></svg>